# xmcd
#
# Track frame offsets:
#	182
#	21527
#	38147
#	56090
#	70337
#	93227
#	109137
#	122997
#	138625
#	155925
#
# Disc length: 2267 seconds
#
# Revision: 4
# Processed by: cddbd v1.5.2PL0 Copyright (c) Steve Scherf et al.
# Submitted via: audiograbber 1.83.01
#
DISCID=9808d90a
DTITLE=Bonnie Raitt - Streetlights
DYEAR=1974
DGENRE=Retro
TTITLE0=That Song About The Midway
TTITLE1=Rainy Day Man
TTITLE2=Angel From Montgomery
TTITLE3=I Got Plenty
TTITLE4=Streetlights
TTITLE5=What Is Success
TTITLE6=Ain't Nobody Home
TTITLE7=Everything That Touches You
TTITLE8=Got You On My Mind
TTITLE9=You Got To Be Ready For Love
EXTD=
EXTT0=
EXTT1=
EXTT2=
EXTT3=
EXTT4=
EXTT5=
EXTT6=
EXTT7=
EXTT8=
EXTT9=
PLAYORDER=
